# xmcd
# 
# Track frame offsets:
#     150
#     22515
#     41137
#     62410
#     83511
#     105742
#     131594
#     158821
#     180041
# 
# Disc length: 2668
# 
# Revision: 1
# Processed by: cddbd v1.5.2PL0 Copyright (c) Steve Scherf et al.
# Submitted via: BonkEnc v1.0.6
# 
DISCID=590a6a09
DTITLE=Celia La - Introducing Celia La
DYEAR=2007
DGENRE=Jazz
TTITLE0=All of You
TTITLE1=Fire and Rain
TTITLE2=Without You
TTITLE3=Don't Go to Strangers
TTITLE4=Little Star
TTITLE5=I've Been Wrong Before
TTITLE6=I've Grown Accustomed to His Face
TTITLE7=You Don't Know What Love Is
TTITLE8=I'm Old Fashioned
EXTD=
EXTT0=
EXTT1=
EXTT2=
EXTT3=
EXTT4=
EXTT5=
EXTT6=
EXTT7=
EXTT8=
PLAYORDER=
